<?xml version="1.0" encoding="UTF-8"?>
<svg width="320px" height="78px" viewBox="0 0 320 78" version="1.1" xmlns="http://www.w3.org/2000/svg" xmlns:xlink="http://www.w3.org/1999/xlink">
    <!-- Generator: Sketch 46.2 (44496) - http://www.bohemiancoding.com/sketch -->
    <title>logo-mvl</title>
    <desc>Created with Sketch.</desc>
    <defs>
        <linearGradient x1="3.67195105%" y1="3.39366284%" x2="36.5689212%" y2="34.0845353%" id="linearGradient-1">
            <stop stop-color="#06D0FF" offset="0%"></stop>
            <stop stop-color="#40DC8F" offset="100%"></stop>
        </linearGradient>
    </defs>
    <g id="Page-1" stroke="none" stroke-width="1" fill="none" fill-rule="evenodd">
        <g id="logo-mvl">
            <path d="M187.112,8.2 L187.112,13 L183.344,16.744 L181.4,14.8 L183.728,12.472 L185.384,11.8 L185.216,11.392 L183.728,11.968 L173.576,11.968 L173.576,9.232 L183.728,9.232 L185.216,9.808 L185.384,9.4 L183.728,8.728 L181.4,6.4 L183.344,4.456 L187.112,8.2 Z M203.288,2.2 L208.856,2.2 L209.816,14.824 L209.816,17.272 L210.392,17.272 L210.392,14.824 L211.352,2.2 L216.92,2.2 L216.92,19 L214.04,19 L214.04,7.768 L214.328,3.928 L213.752,3.928 L212.504,19 L207.752,19 L206.456,3.928 L205.88,3.928 L206.168,7.768 L206.168,19 L203.288,19 L203.288,2.2 Z M222.176,14.032 C222.192,14.3840018 222.275999,14.7079985 222.428,15.004 C222.580001,15.3000015 222.787999,15.5559989 223.052,15.772 C223.316001,15.9880011 223.619998,16.1559994 223.964,16.276 C224.308002,16.3960006 224.671998,16.456 225.056,16.456 C225.808004,16.456 226.383998,16.3240013 226.784,16.06 C227.184002,15.7959987 227.471999,15.4800018 227.648,15.112 L230.24,16.552 C230.095999,16.8560015 229.896001,17.1719984 229.64,17.5 C229.383999,17.8280016 229.052002,18.1279986 228.644,18.4 C228.235998,18.6720014 227.740003,18.8959991 227.156,19.072 C226.571997,19.2480009 225.888004,19.336 225.104,19.336 C224.207996,19.336 223.392004,19.1920014 222.656,18.904 C221.919996,18.6159986 221.284003,18.2000027 220.748,17.656 C220.211997,17.1119973 219.796001,16.4480039 219.5,15.664 C219.203999,14.8799961 219.056,13.992005 219.056,13 L219.056,12.856 C219.056,11.9439954 219.211998,11.1120038 219.524,10.36 C219.836002,9.60799624 220.263997,8.96800264 220.808,8.44 C221.352003,7.91199736 221.987996,7.50000148 222.716,7.204 C223.444004,6.90799852 224.223996,6.76 225.056,6.76 C226.080005,6.76 226.959996,6.9399982 227.696,7.3 C228.432004,7.6600018 229.039998,8.11599724 229.52,8.668 C230.000002,9.22000276 230.351999,9.82799668 230.576,10.492 C230.800001,11.1560033 230.912,11.7999969 230.912,12.424 L230.912,14.032 L222.176,14.032 Z M225.032,9.496 C224.263996,9.496 223.640002,9.69199804 223.16,10.084 C222.679998,10.476002 222.368001,10.9279974 222.224,11.44 L227.84,11.44 C227.744,10.8799972 227.444003,10.4160018 226.94,10.048 C226.435997,9.67999816 225.800004,9.496 225.032,9.496 Z M234.32,16.12 L238.496,16.12 L238.496,5.08 L234.464,5.08 L234.464,2.2 L241.52,2.2 L241.52,16.12 L245.408,16.12 L245.408,19 L234.32,19 L234.32,16.12 Z M260.936,13.192 C260.936,14.184005 260.768002,15.0599962 260.432,15.82 C260.095998,16.5800038 259.640003,17.2199974 259.064,17.74 C258.487997,18.2600026 257.828004,18.6559986 257.084,18.928 C256.339996,19.2000014 255.560004,19.336 254.744,19.336 C253.927996,19.336 253.148004,19.2000014 252.404,18.928 C251.659996,18.6559986 251.000003,18.2600026 250.424,17.74 C249.847997,17.2199974 249.392002,16.5800038 249.056,15.82 C248.719998,15.0599962 248.552,14.184005 248.552,13.192 L248.552,12.904 C248.552,11.9279951 248.719998,11.0600038 249.056,10.3 C249.392002,9.5399962 249.847997,8.89600264 250.424,8.368 C251.000003,7.83999736 251.659996,7.44000136 252.404,7.168 C253.148004,6.89599864 253.927996,6.76 254.744,6.76 C255.560004,6.76 256.339996,6.89599864 257.084,7.168 C257.828004,7.44000136 258.487997,7.83999736 259.064,8.368 C259.640003,8.89600264 260.095998,9.5399962 260.432,10.3 C260.768002,11.0600038 260.936,11.9279951 260.936,12.904 L260.936,13.192 Z M254.744,16.456 C255.176002,16.456 255.583998,16.3840007 255.968,16.24 C256.352002,16.0959993 256.687999,15.8880014 256.976,15.616 C257.264001,15.3439986 257.491999,15.012002 257.66,14.62 C257.828001,14.227998 257.912,13.7840025 257.912,13.288 L257.912,12.808 C257.912,12.3119975 257.828001,11.868002 257.66,11.476 C257.491999,11.083998 257.264001,10.7520014 256.976,10.48 C256.687999,10.2079986 256.352002,10.0000007 255.968,9.856 C255.583998,9.71199928 255.176002,9.64 254.744,9.64 C254.311998,9.64 253.904002,9.71199928 253.52,9.856 C253.135998,10.0000007 252.800001,10.2079986 252.512,10.48 C252.223999,10.7520014 251.996001,11.083998 251.828,11.476 C251.659999,11.868002 251.576,12.3119975 251.576,12.808 L251.576,13.288 C251.576,13.7840025 251.659999,14.227998 251.828,14.62 C251.996001,15.012002 252.223999,15.3439986 252.512,15.616 C252.800001,15.8880014 253.135998,16.0959993 253.52,16.24 C253.904002,16.3840007 254.311998,16.456 254.744,16.456 Z M267.176,19 L264.152,19 L264.152,7.096 L267.176,7.096 L267.176,8.872 L267.608,8.872 C267.880001,8.19999664 268.319997,7.68000184 268.928,7.312 C269.536003,6.94399816 270.247996,6.76 271.064,6.76 C271.640003,6.76 272.179997,6.85199908 272.684,7.036 C273.188003,7.22000092 273.631998,7.50399808 274.016,7.888 C274.400002,8.27200192 274.699999,8.75999704 274.916,9.352 C275.132001,9.94400296 275.24,10.6479959 275.24,11.464 L275.24,19 L272.216,19 L272.216,12.232 C272.216,11.3839958 272.012002,10.7160024 271.604,10.228 C271.195998,9.73999756 270.608004,9.496 269.84,9.496 C268.943996,9.496 268.276002,9.795997 267.836,10.396 C267.395998,10.996003 267.176,11.799995 267.176,12.808 L267.176,19 Z M203.408,28.2 L205.568,28.2 L209.96,44.136 L210.248,44.136 L214.64,28.2 L216.8,28.2 L212.048,45 L208.16,45 L203.408,28.2 Z M223.424,29.544 C223.424,29.0799977 223.587998,28.6840016 223.916,28.356 C224.244002,28.0279984 224.639998,27.864 225.104,27.864 C225.568002,27.864 225.963998,28.0279984 226.292,28.356 C226.620002,28.6840016 226.784,29.0799977 226.784,29.544 C226.784,30.0080023 226.620002,30.4039984 226.292,30.732 C225.963998,31.0600016 225.568002,31.224 225.104,31.224 C224.639998,31.224 224.244002,31.0600016 223.916,30.732 C223.587998,30.4039984 223.424,30.0080023 223.424,29.544 Z M220.016,43.272 L224.192,43.272 L224.192,34.824 L220.448,34.824 L220.448,33.096 L226.064,33.096 L226.064,43.272 L229.952,43.272 L229.952,45 L220.016,45 L220.016,43.272 Z M243.824,43.176 L243.536,43.176 C243.343999,43.5440018 243.100001,43.8639986 242.804,44.136 C242.507999,44.4080014 242.188002,44.6319991 241.844,44.808 C241.499998,44.9840009 241.136002,45.1159996 240.752,45.204 C240.367998,45.2920004 240.000002,45.336 239.648,45.336 C238.847996,45.336 238.104003,45.2000014 237.416,44.928 C236.727997,44.6559986 236.124003,44.2640026 235.604,43.752 C235.083997,43.2399974 234.676001,42.6040038 234.38,41.844 C234.083999,41.0839962 233.936,40.2160049 233.936,39.24 L233.936,38.856 C233.936,37.8959952 234.087998,37.0360038 234.392,36.276 C234.696002,35.5159962 235.103997,34.8760026 235.616,34.356 C236.128003,33.8359974 236.727997,33.4400014 237.416,33.168 C238.104003,32.8959986 238.831996,32.76 239.6,32.76 C240.416004,32.76 241.179996,32.9399982 241.892,33.3 C242.604004,33.6600018 243.151998,34.2159962 243.536,34.968 L243.824,34.968 L243.824,28.2 L245.696,28.2 L245.696,45 L243.824,45 L243.824,43.176 Z M239.84,43.56 C240.400003,43.56 240.919998,43.456001 241.4,43.248 C241.880002,43.039999 242.299998,42.7440019 242.66,42.36 C243.020002,41.9759981 243.303999,41.5160027 243.512,40.98 C243.720001,40.4439973 243.824,39.8480033 243.824,39.192 L243.824,38.904 C243.824,38.2639968 243.720001,37.6760027 243.512,37.14 C243.303999,36.6039973 243.020002,36.1440019 242.66,35.76 C242.299998,35.3759981 241.876002,35.0760011 241.388,34.86 C240.899998,34.6439989 240.384003,34.536 239.84,34.536 C239.279997,34.536 238.756002,34.639999 238.268,34.848 C237.779998,35.056001 237.356002,35.3519981 236.996,35.736 C236.635998,36.1200019 236.356001,36.5759974 236.156,37.104 C235.955999,37.6320026 235.856,38.2159968 235.856,38.856 L235.856,39.24 C235.856,39.9120034 235.955999,40.5119974 236.156,41.04 C236.356001,41.5680026 236.635998,42.0199981 236.996,42.396 C237.356002,42.7720019 237.775998,43.059999 238.256,43.26 C238.736002,43.460001 239.263997,43.56 239.84,43.56 Z M250.856,39.624 C250.904,40.8080059 251.271997,41.7599964 251.96,42.48 C252.648003,43.2000036 253.607994,43.56 254.84,43.56 C255.400003,43.56 255.887998,43.4960006 256.304,43.368 C256.720002,43.2399994 257.075999,43.0640011 257.372,42.84 C257.668001,42.6159989 257.907999,42.3560015 258.092,42.06 C258.276001,41.7639985 258.423999,41.4480017 258.536,41.112 L260.312,41.592 C259.975998,42.6960055 259.356005,43.5959965 258.452,44.292 C257.547995,44.9880035 256.328008,45.336 254.792,45.336 C253.943996,45.336 253.164004,45.1880015 252.452,44.892 C251.739996,44.5959985 251.128003,44.1760027 250.616,43.632 C250.103997,43.0879973 249.704001,42.4400038 249.416,41.688 C249.127999,40.9359962 248.984,40.1040046 248.984,39.192 L248.984,38.616 C248.984,37.7839958 249.131999,37.0080036 249.428,36.288 C249.724001,35.5679964 250.135997,34.9480026 250.664,34.428 C251.192003,33.9079974 251.811996,33.5000015 252.524,33.204 C253.236004,32.9079985 254.007996,32.76 254.84,32.76 C255.816005,32.76 256.659996,32.9399982 257.372,33.3 C258.084004,33.6600018 258.667998,34.1039974 259.124,34.632 C259.580002,35.1600026 259.915999,35.7359969 260.132,36.36 C260.348001,36.9840031 260.456,37.5599974 260.456,38.088 L260.456,39.624 L250.856,39.624 Z M254.84,34.536 C254.311997,34.536 253.820002,34.6199992 253.364,34.788 C252.907998,34.9560008 252.508002,35.1919985 252.164,35.496 C251.819998,35.8000015 251.540001,36.155998 251.324,36.564 C251.107999,36.972002 250.968,37.4159976 250.904,37.896 L258.584,37.896 C258.552,37.3839974 258.428001,36.9200021 258.212,36.504 C257.995999,36.0879979 257.716002,35.7360014 257.372,35.448 C257.027998,35.1599986 256.636002,34.9360008 256.196,34.776 C255.755998,34.6159992 255.304002,34.536 254.84,34.536 Z M275.6,39.192 C275.6,40.184005 275.436002,41.0599962 275.108,41.82 C274.779998,42.5800038 274.344003,43.2199974 273.8,43.74 C273.255997,44.2600026 272.620004,44.6559986 271.892,44.928 C271.163996,45.2000014 270.408004,45.336 269.624,45.336 C268.823996,45.336 268.064004,45.2000014 267.344,44.928 C266.623996,44.6559986 265.992003,44.2600026 265.448,43.74 C264.903997,43.2199974 264.468002,42.5800038 264.14,41.82 C263.811998,41.0599962 263.648,40.184005 263.648,39.192 L263.648,38.904 C263.648,37.9279951 263.811998,37.0600038 264.14,36.3 C264.468002,35.5399962 264.907997,34.8960026 265.46,34.368 C266.012003,33.8399974 266.647996,33.4400014 267.368,33.168 C268.088004,32.8959986 268.839996,32.76 269.624,32.76 C270.408004,32.76 271.159996,32.8959986 271.88,33.168 C272.600004,33.4400014 273.235997,33.8399974 273.788,34.368 C274.340003,34.8960026 274.779998,35.5399962 275.108,36.3 C275.436002,37.0600038 275.6,37.9279951 275.6,38.904 L275.6,39.192 Z M269.624,43.56 C270.200003,43.56 270.731998,43.460001 271.22,43.26 C271.708002,43.059999 272.135998,42.7680019 272.504,42.384 C272.872002,41.9999981 273.159999,41.5400027 273.368,41.004 C273.576001,40.4679973 273.68,39.8640034 273.68,39.192 L273.68,38.904 C273.68,38.2639968 273.576001,37.6760027 273.368,37.14 C273.159999,36.6039973 272.872002,36.1440019 272.504,35.76 C272.135998,35.3759981 271.704002,35.0760011 271.208,34.86 C270.711998,34.6439989 270.184003,34.536 269.624,34.536 C269.063997,34.536 268.536002,34.6439989 268.04,34.86 C267.543998,35.0760011 267.112002,35.3759981 266.744,35.76 C266.375998,36.1440019 266.088001,36.6039973 265.88,37.14 C265.671999,37.6760027 265.568,38.2639968 265.568,38.904 L265.568,39.192 C265.568,39.8640034 265.671999,40.4679973 265.88,41.004 C266.088001,41.5400027 266.375998,41.9999981 266.744,42.384 C267.112002,42.7680019 267.539998,43.059999 268.028,43.26 C268.516002,43.460001 269.047997,43.56 269.624,43.56 Z M204.848,54.2 L206.864,54.2 L206.864,69.128 L215.648,69.128 L215.648,71 L204.848,71 L204.848,54.2 Z M228.368,68.984 L228.08,68.984 C227.695998,69.784004 227.164003,70.3759981 226.484,70.76 C225.803997,71.1440019 225.088004,71.336 224.336,71.336 C223.551996,71.336 222.824003,71.2040013 222.152,70.94 C221.479997,70.6759987 220.892003,70.2840026 220.388,69.764 C219.883997,69.2439974 219.488001,68.6080038 219.2,67.856 C218.911999,67.1039962 218.768,66.232005 218.768,65.24 L218.768,64.856 C218.768,63.8799951 218.911999,63.0160038 219.2,62.264 C219.488001,61.5119962 219.883997,60.8760026 220.388,60.356 C220.892003,59.8359974 221.479997,59.4400014 222.152,59.168 C222.824003,58.8959986 223.535996,58.76 224.288,58.76 C225.104004,58.76 225.843997,58.9399982 226.508,59.3 C227.172003,59.6600018 227.695998,60.2159962 228.08,60.968 L228.368,60.968 L228.368,59.096 L230.24,59.096 L230.24,68.552 C230.24,69.0320024 230.455998,69.272 230.888,69.272 L231.488,69.272 L231.488,71 L230.216,71 C229.671997,71 229.228002,70.8240018 228.884,70.472 C228.539998,70.1199982 228.368,69.6720027 228.368,69.128 L228.368,68.984 Z M224.528,69.56 C225.088003,69.56 225.603998,69.456001 226.076,69.248 C226.548002,69.039999 226.951998,68.7440019 227.288,68.36 C227.624002,67.9759981 227.887999,67.5160027 228.08,66.98 C228.272001,66.4439973 228.368,65.8480033 228.368,65.192 L228.368,64.904 C228.368,64.2639968 228.272001,63.6760027 228.08,63.14 C227.887999,62.6039973 227.620002,62.1440019 227.276,61.76 C226.931998,61.3759981 226.524002,61.0760011 226.052,60.86 C225.579998,60.6439989 225.072003,60.536 224.528,60.536 C223.967997,60.536 223.456002,60.639999 222.992,60.848 C222.527998,61.056001 222.124002,61.3479981 221.78,61.724 C221.435998,62.1000019 221.168001,62.5559973 220.976,63.092 C220.783999,63.6280027 220.688,64.2159968 220.688,64.856 L220.688,65.24 C220.688,66.6000068 221.043996,67.6599962 221.756,68.42 C222.468004,69.1800038 223.391994,69.56 224.528,69.56 Z M236.48,71 L234.608,71 L234.608,59.096 L236.48,59.096 L236.48,61.112 L236.768,61.112 C237.504004,59.5439922 238.783991,58.76 240.608,58.76 C241.984007,58.76 243.079996,59.1879957 243.896,60.044 C244.712004,60.9000043 245.12,62.1839914 245.12,63.896 L245.12,71 L243.248,71 L243.248,64.28 C243.248,63.0319938 242.968003,62.0960031 242.408,61.472 C241.847997,60.8479969 241.088005,60.536 240.128,60.536 C238.991994,60.536 238.100003,60.9239961 237.452,61.7 C236.803997,62.4760039 236.48,63.5119935 236.48,64.808 L236.48,71 Z M258.536,69.176 L258.248,69.176 C257.863998,69.8960036 257.340003,70.4359982 256.676,70.796 C256.011997,71.1560018 255.288004,71.336 254.504,71.336 C253.703996,71.336 252.952004,71.2000014 252.248,70.928 C251.543996,70.6559986 250.924003,70.2640026 250.388,69.752 C249.851997,69.2399974 249.428002,68.6040038 249.116,67.844 C248.803998,67.0839962 248.648,66.2160049 248.648,65.24 L248.648,64.856 C248.648,63.8959952 248.807998,63.0360038 249.128,62.276 C249.448002,61.5159962 249.871997,60.8760026 250.4,60.356 C250.928003,59.8359974 251.543996,59.4400014 252.248,59.168 C252.952004,58.8959986 253.687996,58.76 254.456,58.76 C255.320004,58.76 256.075997,58.9479981 256.724,59.324 C257.372003,59.7000019 257.879998,60.2479964 258.248,60.968 L258.536,60.968 L258.536,59.096 L260.408,59.096 L260.408,73.928 C260.408,74.4720027 260.236002,74.9199982 259.892,75.272 C259.547998,75.6240018 259.104003,75.8 258.56,75.8 L250.808,75.8 L250.808,74.072 L257.888,74.072 C258.320002,74.072 258.536,73.8320024 258.536,73.352 L258.536,69.176 Z M254.552,69.56 C255.112003,69.56 255.631998,69.456001 256.112,69.248 C256.592002,69.039999 257.011998,68.7440019 257.372,68.36 C257.732002,67.9759981 258.015999,67.5160027 258.224,66.98 C258.432001,66.4439973 258.536,65.8480033 258.536,65.192 L258.536,64.904 C258.536,64.2639968 258.432001,63.6760027 258.224,63.14 C258.015999,62.6039973 257.732002,62.1440019 257.372,61.76 C257.011998,61.3759981 256.588002,61.0760011 256.1,60.86 C255.611998,60.6439989 255.096003,60.536 254.552,60.536 C253.991997,60.536 253.468002,60.639999 252.98,60.848 C252.491998,61.056001 252.068002,61.3519981 251.708,61.736 C251.347998,62.1200019 251.068001,62.5759974 250.868,63.104 C250.667999,63.6320026 250.568,64.2159968 250.568,64.856 L250.568,65.24 C250.568,65.9120034 250.667999,66.5119974 250.868,67.04 C251.068001,67.5680026 251.347998,68.0199981 251.708,68.396 C252.068002,68.7720019 252.487998,69.059999 252.968,69.26 C253.448002,69.460001 253.975997,69.56 254.552,69.56 Z M272.864,59.096 L274.736,59.096 L274.736,71 L272.864,71 L272.864,68.84 L272.576,68.84 C272.191998,69.6080038 271.688003,70.2159978 271.064,70.664 C270.439997,71.1120022 269.648005,71.336 268.688,71.336 C268.031997,71.336 267.428003,71.2280011 266.876,71.012 C266.323997,70.7959989 265.852002,70.4720022 265.46,70.04 C265.067998,69.6079978 264.764001,69.0720032 264.548,68.432 C264.331999,67.7919968 264.224,67.0480042 264.224,66.2 L264.224,59.096 L266.096,59.096 L266.096,65.96 C266.096,67.2080062 266.351997,68.1199971 266.864,68.696 C267.376003,69.2720029 268.159995,69.56 269.216,69.56 C270.352006,69.56 271.243997,69.1720039 271.892,68.396 C272.540003,67.6199961 272.864,66.5840065 272.864,65.288 L272.864,59.096 Z M287.888,68.984 L287.6,68.984 C287.215998,69.784004 286.684003,70.3759981 286.004,70.76 C285.323997,71.1440019 284.608004,71.336 283.856,71.336 C283.071996,71.336 282.344003,71.2040013 281.672,70.94 C280.999997,70.6759987 280.412003,70.2840026 279.908,69.764 C279.403997,69.2439974 279.008001,68.6080038 278.72,67.856 C278.431999,67.1039962 278.288,66.232005 278.288,65.24 L278.288,64.856 C278.288,63.8799951 278.431999,63.0160038 278.72,62.264 C279.008001,61.5119962 279.403997,60.8760026 279.908,60.356 C280.412003,59.8359974 280.999997,59.4400014 281.672,59.168 C282.344003,58.8959986 283.055996,58.76 283.808,58.76 C284.624004,58.76 285.363997,58.9399982 286.028,59.3 C286.692003,59.6600018 287.215998,60.2159962 287.6,60.968 L287.888,60.968 L287.888,59.096 L289.76,59.096 L289.76,68.552 C289.76,69.0320024 289.975998,69.272 290.408,69.272 L291.008,69.272 L291.008,71 L289.736,71 C289.191997,71 288.748002,70.8240018 288.404,70.472 C288.059998,70.1199982 287.888,69.6720027 287.888,69.128 L287.888,68.984 Z M284.048,69.56 C284.608003,69.56 285.123998,69.456001 285.596,69.248 C286.068002,69.039999 286.471998,68.7440019 286.808,68.36 C287.144002,67.9759981 287.407999,67.5160027 287.6,66.98 C287.792001,66.4439973 287.888,65.8480033 287.888,65.192 L287.888,64.904 C287.888,64.2639968 287.792001,63.6760027 287.6,63.14 C287.407999,62.6039973 287.140002,62.1440019 286.796,61.76 C286.451998,61.3759981 286.044002,61.0760011 285.572,60.86 C285.099998,60.6439989 284.592003,60.536 284.048,60.536 C283.487997,60.536 282.976002,60.639999 282.512,60.848 C282.047998,61.056001 281.644002,61.3479981 281.3,61.724 C280.955998,62.1000019 280.688001,62.5559973 280.496,63.092 C280.303999,63.6280027 280.208,64.2159968 280.208,64.856 L280.208,65.24 C280.208,66.6000068 280.563996,67.6599962 281.276,68.42 C281.988004,69.1800038 282.911994,69.56 284.048,69.56 Z M303.176,69.176 L302.888,69.176 C302.503998,69.8960036 301.980003,70.4359982 301.316,70.796 C300.651997,71.1560018 299.928004,71.336 299.144,71.336 C298.343996,71.336 297.592004,71.2000014 296.888,70.928 C296.183996,70.6559986 295.564003,70.2640026 295.028,69.752 C294.491997,69.2399974 294.068002,68.6040038 293.756,67.844 C293.443998,67.0839962 293.288,66.2160049 293.288,65.24 L293.288,64.856 C293.288,63.8959952 293.447998,63.0360038 293.768,62.276 C294.088002,61.5159962 294.511997,60.8760026 295.04,60.356 C295.568003,59.8359974 296.183996,59.4400014 296.888,59.168 C297.592004,58.8959986 298.327996,58.76 299.096,58.76 C299.960004,58.76 300.715997,58.9479981 301.364,59.324 C302.012003,59.7000019 302.519998,60.2479964 302.888,60.968 L303.176,60.968 L303.176,59.096 L305.048,59.096 L305.048,73.928 C305.048,74.4720027 304.876002,74.9199982 304.532,75.272 C304.187998,75.6240018 303.744003,75.8 303.2,75.8 L295.448,75.8 L295.448,74.072 L302.528,74.072 C302.960002,74.072 303.176,73.8320024 303.176,73.352 L303.176,69.176 Z M299.192,69.56 C299.752003,69.56 300.271998,69.456001 300.752,69.248 C301.232002,69.039999 301.651998,68.7440019 302.012,68.36 C302.372002,67.9759981 302.655999,67.5160027 302.864,66.98 C303.072001,66.4439973 303.176,65.8480033 303.176,65.192 L303.176,64.904 C303.176,64.2639968 303.072001,63.6760027 302.864,63.14 C302.655999,62.6039973 302.372002,62.1440019 302.012,61.76 C301.651998,61.3759981 301.228002,61.0760011 300.74,60.86 C300.251998,60.6439989 299.736003,60.536 299.192,60.536 C298.631997,60.536 298.108002,60.639999 297.62,60.848 C297.131998,61.056001 296.708002,61.3519981 296.348,61.736 C295.987998,62.1200019 295.708001,62.5759974 295.508,63.104 C295.307999,63.6320026 295.208,64.2159968 295.208,64.856 L295.208,65.24 C295.208,65.9120034 295.307999,66.5119974 295.508,67.04 C295.708001,67.5680026 295.987998,68.0199981 296.348,68.396 C296.708002,68.7720019 297.127998,69.059999 297.608,69.26 C298.088002,69.460001 298.615997,69.56 299.192,69.56 Z M310.376,65.624 C310.424,66.8080059 310.791997,67.7599964 311.48,68.48 C312.168003,69.2000036 313.127994,69.56 314.36,69.56 C314.920003,69.56 315.407998,69.4960006 315.824,69.368 C316.240002,69.2399994 316.595999,69.0640011 316.892,68.84 C317.188001,68.6159989 317.427999,68.3560015 317.612,68.06 C317.796001,67.7639985 317.943999,67.4480017 318.056,67.112 L319.832,67.592 C319.495998,68.6960055 318.876005,69.5959965 317.972,70.292 C317.067995,70.9880035 315.848008,71.336 314.312,71.336 C313.463996,71.336 312.684004,71.1880015 311.972,70.892 C311.259996,70.5959985 310.648003,70.1760027 310.136,69.632 C309.623997,69.0879973 309.224001,68.4400038 308.936,67.688 C308.647999,66.9359962 308.504,66.1040046 308.504,65.192 L308.504,64.616 C308.504,63.7839958 308.651999,63.0080036 308.948,62.288 C309.244001,61.5679964 309.655997,60.9480026 310.184,60.428 C310.712003,59.9079974 311.331996,59.5000015 312.044,59.204 C312.756004,58.9079985 313.527996,58.76 314.36,58.76 C315.336005,58.76 316.179996,58.9399982 316.892,59.3 C317.604004,59.6600018 318.187998,60.1039974 318.644,60.632 C319.100002,61.1600026 319.435999,61.7359969 319.652,62.36 C319.868001,62.9840031 319.976,63.5599974 319.976,64.088 L319.976,65.624 L310.376,65.624 Z M314.36,60.536 C313.831997,60.536 313.340002,60.6199992 312.884,60.788 C312.427998,60.9560008 312.028002,61.1919985 311.684,61.496 C311.339998,61.8000015 311.060001,62.155998 310.844,62.564 C310.627999,62.972002 310.488,63.4159976 310.424,63.896 L318.104,63.896 C318.072,63.3839974 317.948001,62.9200021 317.732,62.504 C317.515999,62.0879979 317.236002,61.7360014 316.892,61.448 C316.547998,61.1599986 316.156002,60.9360008 315.716,60.776 C315.275998,60.6159992 314.824002,60.536 314.36,60.536 Z" id="-&gt;-Melon--&gt;-Video--&gt;" fill="#402E29"></path>
            <path d="M112.998472,39 C106.924872,39 102,33.8505556 102,27.5 C102,21.1494444 106.924872,16 112.998472,16 C119.072073,16 124,21.1494444 124,27.5 C124,33.8505556 119.072073,39 112.998472,39 L112.998472,39 Z M0,0 C0,43.0755 32.6820275,78 72.9984792,78 C113.317973,78 146,43.0755 146,0 L0,0 Z" id="Fill-1" fill="url(#linearGradient-1)"></path>
        </g>
    </g>
</svg>